<?xml version="1.0" standalone="no"?>
<!DOCTYPE svg PUBLIC "-//W3C//DTD SVG 20010904//EN"
 "http://www.w3.org/TR/2001/REC-SVG-20010904/DTD/svg10.dtd">
<svg version="1.0" xmlns="http://www.w3.org/2000/svg"
 width="2000.000000pt" height="2000.000000pt" viewBox="0 0 2000.000000 2000.000000"
 preserveAspectRatio="xMidYMid meet">
<metadata>
Created by potrace 1.16, written by Peter Selinger 2001-2019
</metadata>
<g transform="translate(0.000000,2000.000000) scale(0.100000,-0.100000)"
fill="#000000" stroke="none">
<path d="M9812 19980 c-245 -65 -449 -270 -512 -516 -14 -53 -20 -111 -20
-184 0 -208 65 -365 210 -510 145 -145 302 -210 510 -210 208 0 365 65 510
210 145 145 210 302 210 510 0 208 -65 365 -210 510 -98 99 -200 158 -326 190
-103 27 -270 26 -372 0z"/>
<path d="M9791 16505 c-35 -8 -94 -24 -130 -36 -36 -12 -1337 -658 -2891
-1435 -2640 -1320 -2831 -1417 -2910 -1481 -162 -130 -299 -341 -352 -543
l-23 -85 0 -2920 0 -2920 23 -85 c53 -202 190 -413 352 -543 79 -64 269 -161
2925 -1488 2178 -1089 2861 -1426 2930 -1446 84 -25 103 -27 280 -27 177 0
196 2 280 27 69 20 752 357 2930 1446 2656 1327 2846 1424 2925 1488 162 130
299 341 352 543 l23 85 0 2920 0 2920 -23 85 c-53 202 -190 413 -352 543 -79
64 -269 161 -2925 1488 -2235 1117 -2859 1425 -2930 1446 -77 22 -113 26 -255
29 -118 3 -183 -1 -229 -11z m2949 -2395 l2740 -1370 0 -2735 0 -2735 -2742
-1371 -2743 -1371 -2742 1371 -2743 1371 0 2735 0 2735 2738 1369 c1505 754
2740 1370 2745 1370 4 1 1240 -616 2747 -1369z"/>
<path d="M532 14980 c-245 -65 -449 -270 -512 -516 -27 -105 -27 -263 0 -368
63 -248 268 -453 516 -516 53 -14 111 -20 184 -20 73 0 131 6 184 20 248 63
453 268 516 516 27 105 27 263 0 368 -63 248 -268 453 -516 516 -103 27 -270
26 -372 0z"/>
<path d="M19092 14980 c-245 -65 -449 -270 -512 -516 -14 -53 -20 -111 -20
-184 0 -208 65 -365 210 -510 145 -145 302 -210 510 -210 208 0 365 65 510
210 145 145 210 302 210 510 0 73 -6 131 -20 184 -63 248 -268 453 -516 516
-103 27 -270 26 -372 0z"/>
<path d="M532 6450 c-245 -65 -449 -270 -512 -516 -27 -105 -27 -263 0 -368
63 -248 268 -453 516 -516 53 -14 111 -20 184 -20 73 0 131 6 184 20 248 63
453 268 516 516 27 105 27 263 0 368 -63 248 -268 453 -516 516 -103 27 -270
26 -372 0z"/>
<path d="M19092 6450 c-245 -65 -449 -270 -512 -516 -14 -53 -20 -111 -20
-184 0 -208 65 -365 210 -510 145 -145 302 -210 510 -210 208 0 365 65 510
210 145 145 210 302 210 510 0 73 -6 131 -20 184 -63 248 -268 453 -516 516
-103 27 -270 26 -372 0z"/>
<path d="M9812 1420 c-245 -65 -449 -270 -512 -516 -14 -53 -20 -111 -20 -184
0 -208 65 -365 210 -510 145 -145 302 -210 510 -210 208 0 365 65 510 210 145
145 210 302 210 510 0 73 -6 131 -20 184 -63 248 -268 453 -516 516 -103 27
-270 26 -372 0z"/>
</g>
</svg>
